<svg xmlns="http://www.w3.org/2000/svg" xmlns:xlink="http://www.w3.org/1999/xlink" viewBox="0 0 1000 560" font-family="'Hiragino Kaku Gothic ProN','Noto Sans JP',sans-serif">
  <defs>
    <marker id="arrow" viewBox="0 0 10 10" refX="9" refY="5" markerWidth="7" markerHeight="7" orient="auto-start-reverse">
      <path d="M 0 0 L 10 5 L 0 10 z" fill="#4b5563"/>
    </marker>
    <marker id="arrow-dashed" viewBox="0 0 10 10" refX="9" refY="5" markerWidth="7" markerHeight="7" orient="auto-start-reverse">
      <path d="M 0 0 L 10 5 L 0 10 z" fill="#7e22ce"/>
    </marker>
    <linearGradient x1="0%" y1="100%" x2="100%" y2="0%" id="lg-cf">
            <stop stop-color="#4D27A8" offset="0%"></stop>
            <stop stop-color="#A166FF" offset="100%"></stop>
        </linearGradient>
    <linearGradient x1="0%" y1="100%" x2="100%" y2="0%" id="lg-la">
            <stop stop-color="#C8511B" offset="0%"></stop>
            <stop stop-color="#FF9900" offset="100%"></stop>
        </linearGradient>
    <linearGradient x1="0%" y1="100%" x2="100%" y2="0%" id="lg-s3">
            <stop stop-color="#1B660F" offset="0%"></stop>
            <stop stop-color="#6CAE3E" offset="100%"></stop>
        </linearGradient>
    <linearGradient x1="0%" y1="100%" x2="100%" y2="0%" id="lg-gw">
            <stop stop-color="#B0084D" offset="0%"></stop>
            <stop stop-color="#FF4F8B" offset="100%"></stop>
        </linearGradient>
  </defs>

  <rect x="0" y="0" width="1000" height="560" fill="#ffffff"/>

  <!-- Browser -->
  <rect x="20" y="256" width="130" height="60" rx="10" fill="#eff6ff" stroke="#2563eb" stroke-width="1.5"/>
  <text x="85" y="292" text-anchor="middle" font-size="16" fill="#1e3a8a">ブラウザ</text>

  <!-- CloudFront -->
  <g transform="translate(268,254) scale(0.8)"><g id="Icon-Architecture/64/Arch_Amazon-CloudFront_64" stroke="none" stroke-width="1" fill="none" fill-rule="evenodd">
        <g id="Icon-Architecture-BG/64/Networking-Content-Delivery" fill="url(#lg-cf)">
            <rect id="Rectangle" x="0" y="0" width="80" height="80"></rect>
        </g>
        <path d="M55.122,52.123 C55.122,50.469 53.776,49.123 52.122,49.123 C50.468,49.123 49.122,50.469 49.122,52.123 C49.122,53.777 50.468,55.123 52.122,55.123 C53.776,55.123 55.122,53.777 55.122,52.123 L55.122,52.123 Z M57.122,52.123 C57.122,54.88 54.879,57.123 52.122,57.123 C49.365,57.123 47.122,54.88 47.122,52.123 C47.122,49.366 49.365,47.123 52.122,47.123 C54.879,47.123 57.122,49.366 57.122,52.123 L57.122,52.123 Z M30.392,37.692 C30.392,36.038 29.046,34.692 27.392,34.692 C25.737,34.692 24.392,36.038 24.392,37.692 C24.392,39.346 25.737,40.692 27.392,40.692 C29.046,40.692 30.392,39.346 30.392,37.692 L30.392,37.692 Z M32.392,37.692 C32.392,40.449 30.148,42.692 27.392,42.692 C24.635,42.692 22.392,40.449 22.392,37.692 C22.392,34.935 24.635,32.692 27.392,32.692 C30.148,32.692 32.392,34.935 32.392,37.692 L32.392,37.692 Z M39.73,22.007 C39.73,23.661 41.076,25.007 42.73,25.007 C44.385,25.007 45.73,23.661 45.73,22.007 C45.73,20.352 44.385,19.007 42.73,19.007 C41.076,19.007 39.73,20.352 39.73,22.007 L39.73,22.007 Z M37.73,22.007 C37.73,19.25 39.974,17.007 42.73,17.007 C45.487,17.007 47.73,19.25 47.73,22.007 C47.73,24.764 45.487,27.007 42.73,27.007 C39.974,27.007 37.73,24.764 37.73,22.007 L37.73,22.007 Z M66,40 C66,30.727 61.028,22.148 53.012,17.509 C51.575,17.799 50.185,18.196 48.451,18.823 L47.771,16.942 C48.676,16.616 49.486,16.352 50.266,16.126 C47.046,14.737 43.548,14 40,14 C38.311,14 36.649,14.175 35.025,14.492 C36.201,15.18 37.244,15.866 38.257,16.634 L37.048,18.227 C35.62,17.145 34.14,16.228 32.197,15.21 C22.378,18.298 15.306,26.958 14.183,37.128 C16.242,36.711 18.219,36.484 20.414,36.43 L20.463,38.429 C18.163,38.486 16.187,38.73 14.027,39.205 C14.018,39.47 14,39.738 14,40 C14,48.658 18.283,56.636 25.327,61.447 C24.074,57.716 23.45,54.19 23.45,50.746 C23.45,48.782 23.788,47.169 24.145,45.462 C24.228,45.067 24.312,44.665 24.394,44.248 L26.357,44.635 C26.273,45.059 26.187,45.47 26.103,45.873 C25.753,47.545 25.45,48.989 25.45,50.746 C25.45,54.654 26.308,58.695 28.054,63.083 C31.773,65.014 35.789,66 40,66 C42.756,66 45.446,65.56 48.012,64.714 C49.019,62.727 49.766,60.852 50.39,58.699 L52.311,59.256 C51.855,60.826 51.332,62.253 50.709,63.677 C52.323,62.951 53.85,62.053 55.283,61.005 C54.938,60.159 54.568,59.318 54.159,58.499 L55.948,57.604 C56.296,58.3 56.615,59.012 56.92,59.728 C62.705,54.775 66,47.66 66,40 L66,40 Z M68,40 C68,48.727 64.034,56.799 57.121,62.149 C55.409,63.479 53.552,64.583 51.589,65.472 C50.756,65.85 49.908,66.2 49.036,66.494 C46.156,67.493 43.113,68 40,68 C35.4,68 30.832,66.854 26.788,64.686 C17.667,59.806 12,50.347 12,40 C12,39.314 12.018,38.792 12.059,38.309 C12.74,26.625 20.756,16.512 32.001,13.166 C34.562,12.393 37.255,12 40,12 C44.808,12 49.539,13.238 53.684,15.579 C62.513,20.525 68,29.884 68,40 L68,40 Z M37.314,25.463 L36,23.956 C33.758,25.912 32.014,27.989 29.977,31.126 L31.655,32.215 C33.583,29.244 35.223,27.288 37.314,25.463 L37.314,25.463 Z M34.275,38.427 L33.625,40.318 C38.218,41.895 42.225,44.411 46.234,48.236 L47.615,46.789 C43.389,42.758 39.15,40.101 34.275,38.427 L34.275,38.427 Z M47.646,26.668 C51.398,32.39 53.511,38.671 53.925,45.338 L51.929,45.462 C51.536,39.146 49.533,33.192 45.975,27.765 L47.646,26.668 Z" id="Amazon-CloudFront_Icon_64_Squid" fill="#FFFFFF"></path>
    </g></g>
  <text x="300" y="342" text-anchor="middle" font-size="14" fill="#111827">CloudFront</text>
  <text x="300" y="360" text-anchor="middle" font-size="11" fill="#4b5563">パスごとにオリジンを振り分け</text>

  <!-- S3 -->
  <g transform="translate(800,40) scale(0.8)"><g id="Icon-Architecture/64/Arch_Amazon-Simple-Storage-Service_64" stroke="none" stroke-width="1" fill="none" fill-rule="evenodd">
        <g id="Rectangle" fill="url(#lg-s3)">
            <rect x="0" y="0" width="80" height="80"></rect>
        </g>
        <g id="Icon-Service/64/Amazon-Simple-Storage-Service_64" transform="translate(8.000000, 8.000000)" fill="#FFFFFF">
            <path d="M52.8359,34.8926 L53.2199,32.1886 C56.7609,34.3096 56.8069,35.1856 56.8059132,35.2096 C56.7999,35.2146 56.1959,35.7186 52.8359,34.8926 L52.8359,34.8926 Z M50.8929,34.3526 C44.7729,32.5006 36.2499,28.5906 32.8009,26.9606 C32.8009,26.9466 32.8049,26.9336 32.8049,26.9196 C32.8049,25.5946 31.7269,24.5166 30.4009,24.5166 C29.0769,24.5166 27.9989,25.5946 27.9989,26.9196 C27.9989,28.2446 29.0769,29.3226 30.4009,29.3226 C30.9829,29.3226 31.5109,29.1056 31.9279,28.7606 C35.9859,30.6816 44.4429,34.5346 50.6079,36.3546 L48.1699,53.5606 C48.1629,53.6076 48.1599,53.6546 48.1599,53.7016 C48.1599,55.2166 41.4529,57.9996 30.4939,57.9996 C19.4189,57.9996 12.6409,55.2166 12.6409,53.7016 C12.6409,53.6556 12.6379,53.6106 12.6319,53.5656 L7.5379,16.3586 C11.9469,19.3936 21.4299,20.9996 30.4999,20.9996 C39.5559,20.9996 49.0229,19.3996 53.4409,16.3736 L50.8929,34.3526 Z M6.9999,12.4776 C7.0719,11.1616 14.6339,5.9996 30.4999,5.9996 C46.3639,5.9996 53.9269,11.1606 53.9999,12.4776 L53.9999,12.9266 C53.1299,15.8776 43.3299,18.9996 30.4999,18.9996 C17.6479,18.9996 7.8429,15.8676 6.9999,12.9126 L6.9999,12.4776 Z M55.9999,12.4996 C55.9999,9.0346 46.0659,3.9996 30.4999,3.9996 C14.9339,3.9996 4.9999,9.0346 4.9999,12.4996 L5.0939,13.2536 L10.6419,53.7776 C10.7749,58.3096 22.8609,59.9996 30.4939,59.9996 C39.9659,59.9996 50.0289,57.8216 50.1589,53.7806 L52.5549,36.8836 C53.8879,37.2026 54.9849,37.3656 55.8659,37.3656 C57.0489,37.3656 57.8489,37.0766 58.3339,36.4986 C58.7319,36.0246 58.8839,35.4506 58.7699,34.8396 C58.5109,33.4556 56.8679,31.9636 53.5219,30.0546 L55.8979,13.2926 L55.9999,12.4996 Z" id="Amazon-Simple-Storage-Service-Icon_64_Squid"></path>
        </g>
    </g></g>
  <text x="832" y="128" text-anchor="middle" font-size="14" fill="#111827">S3</text>
  <text x="832" y="146" text-anchor="middle" font-size="11" fill="#4b5563">静的アセット（.output/public）</text>

  <!-- API Gateway (SSR) -->
  <g transform="translate(540,216) scale(0.8)"><g id="Icon-Architecture/64/Arch_-Amazon-API-Gateway_64" stroke="none" stroke-width="1" fill="none" fill-rule="evenodd">
        <g id="Rectangle" fill="url(#lg-gw)">
            <rect x="0" y="0" width="80" height="80"></rect>
        </g>
        <g id="Icon-Service/64/Amazon-API-Gateway_64" transform="translate(8.000000, 8.000000)" fill="#FFFFFF">
            <path d="M26.065,47.6323642 L29,47.6323642 L29,45.6152989 L26.065,45.6152989 L26.065,47.6323642 Z M31,47.6323642 L34,47.6323642 L34,45.6152989 L31,45.6152989 L31,47.6323642 Z M19,6.62946112 L6,13.082053 L6,53.1934132 L19,57.589607 L19,6.62946112 Z M21,19.3934502 L21,45.6152989 L24,45.6152989 L24,47.6323642 L21,47.6323642 L21,58.9914674 C21,59.3162149 20.845,59.6207917 20.584,59.8103959 C20.412,59.9354539 20.207,60 20,60 C19.894,60 19.786,59.9828549 19.682,59.9475563 L4.682,54.8756456 C4.274,54.7374767 4,54.3522172 4,53.9195567 L4,12.4537371 C4,12.0704947 4.217,11.7185168 4.559,11.5490833 L19.559,4.10409539 C19.868,3.94978989 20.235,3.96794348 20.528,4.15250495 C20.821,4.33605789 21,4.65979687 21,5.00874917 L21,17.376385 L24,17.376385 L24,19.3934502 L21,19.3934502 Z M36,47.6323642 L39,47.6323642 L39,45.6152989 L36,45.6152989 L36,47.6323642 Z M36.065,19.3934502 L39,19.3934502 L39,17.376385 L36.065,17.376385 L36.065,19.3934502 Z M31.065,19.3934502 L34,19.3934502 L34,17.376385 L31.065,17.376385 L31.065,19.3934502 Z M26.065,19.3934502 L29,19.3934502 L29,17.376385 L26.065,17.376385 L26.065,19.3934502 Z M58,13.082053 L45,6.62946112 L45,57.589607 L58,53.1934132 L58,13.082053 Z M60,53.9195567 C60,54.3522172 59.726,54.7374767 59.318,54.8756456 L44.318,59.9475563 C44.214,59.9828549 44.106,60 44,60 C43.793,60 43.588,59.9354539 43.416,59.8103959 C43.155,59.6207917 43,59.3162149 43,58.9914674 L43,47.6323642 L41.065,47.6323642 L41.065,45.6152989 L43,45.6152989 L43,19.3934502 L41.065,19.3934502 L41.065,17.376385 L43,17.376385 L43,5.00874917 C43,4.65979687 43.179,4.33605789 43.472,4.15250495 C43.765,3.96794348 44.131,3.94978989 44.441,4.10409539 L59.441,11.5490833 C59.783,11.7185168 60,12.0704947 60,12.4537371 L60,53.9195567 Z M34.934,25.8067093 L33.066,25.0825829 L28.066,38.1935072 L29.934,38.9176337 L34.934,25.8067093 Z M41.707,32.2088745 C42.098,31.8145383 42.098,31.1761371 41.707,30.7828094 L37.707,26.7486788 L36.293,28.174744 L39.586,31.4958419 L36.293,34.8169399 L37.707,36.2430051 L41.707,32.2088745 Z M26.293,36.2430051 L22.293,32.2088745 C21.902,31.8145383 21.902,31.1761371 22.293,30.7828094 L26.293,26.7486788 L27.707,28.174744 L24.414,31.4958419 L27.707,34.8169399 L26.293,36.2430051 Z" id="Amazon-API-Gateway_Icon_64_Squid"></path>
        </g>
    </g></g>
  <text x="572" y="304" text-anchor="middle" font-size="14" fill="#111827">API Gateway</text>
  <text x="572" y="322" text-anchor="middle" font-size="11" fill="#4b5563">REST API・ストリーミング</text>

  <!-- SSR Lambda -->
  <g transform="translate(800,216) scale(0.8)"><g id="Icon-Architecture/64/Arch_AWS-Lambda_64" stroke="none" stroke-width="1" fill="none" fill-rule="evenodd">
        <g id="Icon-Architecture-BG/64/Compute" fill="url(#lg-la)">
            <rect id="Rectangle" x="0" y="0" width="80" height="80"></rect>
        </g>
        <path d="M28.0075352,66 L15.5907274,66 L29.3235885,37.296 L35.5460249,50.106 L28.0075352,66 Z M30.2196674,34.553 C30.0512768,34.208 29.7004629,33.989 29.3175745,33.989 L29.3145676,33.989 C28.9286723,33.99 28.5778583,34.211 28.4124746,34.558 L13.097944,66.569 C12.9495999,66.879 12.9706487,67.243 13.1550766,67.534 C13.3374998,67.824 13.6582439,68 14.0020416,68 L28.6420072,68 C29.0299071,68 29.3817234,67.777 29.5481094,67.428 L37.563706,50.528 C37.693006,50.254 37.6920037,49.937 37.5586944,49.665 L30.2196674,34.553 Z M64.9953491,66 L52.6587274,66 L32.866809,24.57 C32.7014253,24.222 32.3486067,24 31.9617091,24 L23.8899822,24 L23.8990031,14 L39.7197081,14 L59.4204149,55.429 C59.5857986,55.777 59.9386172,56 60.3255148,56 L64.9953491,56 L64.9953491,66 Z M65.9976745,54 L60.9599868,54 L41.25928,12.571 C41.0938963,12.223 40.7410777,12 40.3531778,12 L22.89768,12 C22.3453987,12 21.8963569,12.447 21.8953545,12.999 L21.884329,24.999 C21.884329,25.265 21.9885708,25.519 22.1780103,25.707 C22.3654452,25.895 22.6200358,26 22.8866544,26 L31.3292417,26 L51.1221625,67.43 C51.2885485,67.778 51.6393624,68 52.02626,68 L65.9976745,68 C66.5519605,68 67,67.552 67,67 L67,55 C67,54.448 66.5519605,54 65.9976745,54 L65.9976745,54 Z" id="AWS-Lambda_Icon_64_Squid" fill="#FFFFFF"></path>
    </g></g>
  <text x="832" y="304" text-anchor="middle" font-size="14" fill="#111827">Lambda（SSR）</text>
  <text x="832" y="322" text-anchor="middle" font-size="11" fill="#4b5563">Nitro ビルドの .output/server</text>

  <!-- API Gateway (Blocks API) -->
  <g transform="translate(540,428) scale(0.8)"><g id="Icon-Architecture/64/Arch_-Amazon-API-Gateway_64" stroke="none" stroke-width="1" fill="none" fill-rule="evenodd">
        <g id="Rectangle" fill="url(#lg-gw)">
            <rect x="0" y="0" width="80" height="80"></rect>
        </g>
        <g id="Icon-Service/64/Amazon-API-Gateway_64" transform="translate(8.000000, 8.000000)" fill="#FFFFFF">
            <path d="M26.065,47.6323642 L29,47.6323642 L29,45.6152989 L26.065,45.6152989 L26.065,47.6323642 Z M31,47.6323642 L34,47.6323642 L34,45.6152989 L31,45.6152989 L31,47.6323642 Z M19,6.62946112 L6,13.082053 L6,53.1934132 L19,57.589607 L19,6.62946112 Z M21,19.3934502 L21,45.6152989 L24,45.6152989 L24,47.6323642 L21,47.6323642 L21,58.9914674 C21,59.3162149 20.845,59.6207917 20.584,59.8103959 C20.412,59.9354539 20.207,60 20,60 C19.894,60 19.786,59.9828549 19.682,59.9475563 L4.682,54.8756456 C4.274,54.7374767 4,54.3522172 4,53.9195567 L4,12.4537371 C4,12.0704947 4.217,11.7185168 4.559,11.5490833 L19.559,4.10409539 C19.868,3.94978989 20.235,3.96794348 20.528,4.15250495 C20.821,4.33605789 21,4.65979687 21,5.00874917 L21,17.376385 L24,17.376385 L24,19.3934502 L21,19.3934502 Z M36,47.6323642 L39,47.6323642 L39,45.6152989 L36,45.6152989 L36,47.6323642 Z M36.065,19.3934502 L39,19.3934502 L39,17.376385 L36.065,17.376385 L36.065,19.3934502 Z M31.065,19.3934502 L34,19.3934502 L34,17.376385 L31.065,17.376385 L31.065,19.3934502 Z M26.065,19.3934502 L29,19.3934502 L29,17.376385 L26.065,17.376385 L26.065,19.3934502 Z M58,13.082053 L45,6.62946112 L45,57.589607 L58,53.1934132 L58,13.082053 Z M60,53.9195567 C60,54.3522172 59.726,54.7374767 59.318,54.8756456 L44.318,59.9475563 C44.214,59.9828549 44.106,60 44,60 C43.793,60 43.588,59.9354539 43.416,59.8103959 C43.155,59.6207917 43,59.3162149 43,58.9914674 L43,47.6323642 L41.065,47.6323642 L41.065,45.6152989 L43,45.6152989 L43,19.3934502 L41.065,19.3934502 L41.065,17.376385 L43,17.376385 L43,5.00874917 C43,4.65979687 43.179,4.33605789 43.472,4.15250495 C43.765,3.96794348 44.131,3.94978989 44.441,4.10409539 L59.441,11.5490833 C59.783,11.7185168 60,12.0704947 60,12.4537371 L60,53.9195567 Z M34.934,25.8067093 L33.066,25.0825829 L28.066,38.1935072 L29.934,38.9176337 L34.934,25.8067093 Z M41.707,32.2088745 C42.098,31.8145383 42.098,31.1761371 41.707,30.7828094 L37.707,26.7486788 L36.293,28.174744 L39.586,31.4958419 L36.293,34.8169399 L37.707,36.2430051 L41.707,32.2088745 Z M26.293,36.2430051 L22.293,32.2088745 C21.902,31.8145383 21.902,31.1761371 22.293,30.7828094 L26.293,26.7486788 L27.707,28.174744 L24.414,31.4958419 L27.707,34.8169399 L26.293,36.2430051 Z" id="Amazon-API-Gateway_Icon_64_Squid"></path>
        </g>
    </g></g>
  <text x="572" y="516" text-anchor="middle" font-size="14" fill="#111827">API Gateway</text>
  <text x="572" y="534" text-anchor="middle" font-size="11" fill="#4b5563">REST API</text>

  <!-- API Lambda -->
  <g transform="translate(800,428) scale(0.8)"><g id="Icon-Architecture/64/Arch_AWS-Lambda_64" stroke="none" stroke-width="1" fill="none" fill-rule="evenodd">
        <g id="Icon-Architecture-BG/64/Compute" fill="url(#lg-la)">
            <rect id="Rectangle" x="0" y="0" width="80" height="80"></rect>
        </g>
        <path d="M28.0075352,66 L15.5907274,66 L29.3235885,37.296 L35.5460249,50.106 L28.0075352,66 Z M30.2196674,34.553 C30.0512768,34.208 29.7004629,33.989 29.3175745,33.989 L29.3145676,33.989 C28.9286723,33.99 28.5778583,34.211 28.4124746,34.558 L13.097944,66.569 C12.9495999,66.879 12.9706487,67.243 13.1550766,67.534 C13.3374998,67.824 13.6582439,68 14.0020416,68 L28.6420072,68 C29.0299071,68 29.3817234,67.777 29.5481094,67.428 L37.563706,50.528 C37.693006,50.254 37.6920037,49.937 37.5586944,49.665 L30.2196674,34.553 Z M64.9953491,66 L52.6587274,66 L32.866809,24.57 C32.7014253,24.222 32.3486067,24 31.9617091,24 L23.8899822,24 L23.8990031,14 L39.7197081,14 L59.4204149,55.429 C59.5857986,55.777 59.9386172,56 60.3255148,56 L64.9953491,56 L64.9953491,66 Z M65.9976745,54 L60.9599868,54 L41.25928,12.571 C41.0938963,12.223 40.7410777,12 40.3531778,12 L22.89768,12 C22.3453987,12 21.8963569,12.447 21.8953545,12.999 L21.884329,24.999 C21.884329,25.265 21.9885708,25.519 22.1780103,25.707 C22.3654452,25.895 22.6200358,26 22.8866544,26 L31.3292417,26 L51.1221625,67.43 C51.2885485,67.778 51.6393624,68 52.02626,68 L65.9976745,68 C66.5519605,68 67,67.552 67,67 L67,55 C67,54.448 66.5519605,54 65.9976745,54 L65.9976745,54 Z" id="AWS-Lambda_Icon_64_Squid" fill="#FFFFFF"></path>
    </g></g>
  <text x="832" y="516" text-anchor="middle" font-size="14" fill="#111827">Lambda（Blocks API）</text>
  <text x="832" y="534" text-anchor="middle" font-size="11" fill="#4b5563">aws-blocks/index.ts の ApiNamespace</text>

  <!-- Browser -> CloudFront -->
  <line x1="150" y1="286" x2="262" y2="286" stroke="#4b5563" stroke-width="1.5" marker-end="url(#arrow)"/>

  <!-- CloudFront -> S3 -->
  <path d="M 334 268 C 480 200 640 130 794 78" fill="none" stroke="#4b5563" stroke-width="1.5" marker-end="url(#arrow)"/>
  <text x="600" y="140" text-anchor="end" font-size="11" fill="#374151">/assets/* など静的ファイル</text>

  <!-- CloudFront -> API GW (SSR) -->
  <line x1="334" y1="282" x2="534" y2="256" stroke="#4b5563" stroke-width="1.5" marker-end="url(#arrow)"/>
  <text x="434" y="258" text-anchor="middle" font-size="11" fill="#374151">それ以外（SSR）</text>

  <!-- API GW (SSR) -> SSR Lambda -->
  <line x1="604" y1="248" x2="794" y2="248" stroke="#4b5563" stroke-width="1.5" marker-end="url(#arrow)"/>

  <!-- CloudFront -> API GW (Blocks API) -->
  <path d="M 334 300 C 420 350 460 410 534 452" fill="none" stroke="#4b5563" stroke-width="1.5" marker-end="url(#arrow)"/>
  <text x="452" y="392" text-anchor="end" font-size="11" fill="#374151">/aws-blocks/api</text>

  <!-- API GW (Blocks API) -> API Lambda -->
  <line x1="604" y1="460" x2="794" y2="460" stroke="#4b5563" stroke-width="1.5" marker-end="url(#arrow)"/>

  <!-- SSR Lambda -> API GW (Blocks API) (dashed) -->
  <path d="M 832 332 C 832 380 700 400 620 436" fill="none" stroke="#7e22ce" stroke-width="1.5" stroke-dasharray="6 4" marker-end="url(#arrow-dashed)"/>
  <text x="840" y="380" font-size="11" fill="#7e22ce">loader からの API 呼び出し</text>
  <text x="840" y="396" font-size="11" fill="#7e22ce">（BLOCKS_API_URL）</text>
</svg>
